// Include "../A00Assembly/mmGasA00Assembly.geo";
// Include "../A00Assembly/mmGasA00AssemblyParam.geo";

// Include "../A00CuG0cp12/mmGasA00CuG0cp12.geo";
// Include "../A00CuG0cp12/mmGasA00CuG0cp12T.geo";
// Include "../A00CuG0cp12/mmGasA00CuG0cp12Bv0.geo";
// Include "../A00CuG0cp12/mmGasA00CuG0cp12CompLab.pro";
// Include "../A00CuG0cp12/mmGasA00CuG0cp12Param.geo";
// Include "../A00CuG0cp12/mmGasA00CuG0cp12ParamT.geo";
// Include "../A00CuG0cp12/mmGasA00CuG0cp12ParamBv0.geo";
// Include "../A00CuG0cp12/mmGasA00CuGP0cp12.geo";
// Include "../A00CuG0cp12/mmGasA00CuGP0cp12Param.geo";

// Include "../A00Bd0pcb12/mmGasA00Bd0pcb12.geo";
// Include "../A00Bd0pcb12/mmGasA00Bd0pcb12T.geo";
// Include "../A00Bd0pcb12/mmGasA00Bd0pcb12CompLab.pro";
// Include "../A00Bd0pcb12/mmGasA00Bd0pcb12Param.geo";
// Include "../A00Bd0pcb12/mmGasA00Bd0pcb12ParamT.geo";

// Include "../A01BdX1pcb12/mmGasA01BdX1pcb12A.geo";
// Include "../A01BdX1pcb12/mmGasA01BdX1pcb12CompLab.pro";
// Include "../A01BdX1pcb12/mmGasA01BdX1pcb12Param.geo";
// Include "../A01BdX1pcb12/mmGasA01BdX1pcb12ParamT.geo";

// Include "../A01CuX1cp12/mmGasA01CuX1cp12.geo";
// Include "../A01CuX1cp12/mmGasA01CuX1cp12T.geo";
// Include "../A01CuX1cp12/mmGasA01CuX1cp12Bv0.geo";
// Include "../A01CuX1cp12/mmGasA01CuX1cp12Bv1.geo";
// Include "../A01CuX1cp12/mmGasA01CuX1cp12Bv2.geo";
// Include "../A01CuX1cp12/mmGasA01CuX1cp12CompLab.pro";
// Include "../A01CuX1cp12/mmGasA01CuX1cp12Param.geo";
// Include "../A01CuX1cp12/mmGasA01CuX1cp12ParamT.geo";
// Include "../A01CuX1cp12/mmGasA01CuX1cp12ParamBv0.geo";
// Include "../A01CuX1cp12/mmGasA01CuX1cp12ParamBv1.geo";
// Include "../A01CuX1cp12/mmGasA01CuX1cp12ParamBv2.geo";

// Include "../A01Bd1pcb12/mmGasA01Bd1pcb12.geo";
// Include "../A01Bd1pcb12/mmGasA01Bd1pcb12T.geo";
// Include "../A01Bd1pcb12/mmGasA01Bd1pcb12CompLab.pro";
// Include "../A01Bd1pcb12/mmGasA01Bd1pcb12Param.geo";
// Include "../A01Bd1pcb12/mmGasA01Bd1pcb12ParamTv0.geo";
// Include "../A01Bd1pcb12/mmGasA01Bd1pcb12ParamTv1.geo";
// Include "../A01Bd1pcb12/mmGasA01Bd1pcb12ParamTv2.geo";

// Include "../A01BdY1pcb12/mmGasA01BdY1pcb12.geo";
// Include "../A01BdY1pcb12/mmGasA01BdY1pcb12T.geo";
// Include "../A01BdY1pcb12/mmGasA01BdY1pcb12CompLab.pro";
// Include "../A01BdY1pcb12/mmGasA01BdY1pcb12Param.geo";
// Include "../A01BdY1pcb12/mmGasA01BdY1pcb12ParamTv0.geo";
// Include "../A01BdY1pcb12/mmGasA01BdY1pcb12ParamTv1.geo";
// Include "../A01BdY1pcb12/mmGasA01BdY1pcb12ParamTv2.geo";

// Include "../A01CuY1cp12/mmGasA01CuY1cp12.geo";
// Include "../A01CuY1cp12/mmGasA01CuY1cp12T.geo";
// Include "../A01CuY1cp12/mmGasA01CuY1cp12Bv0.geo";
// Include "../A01CuY1cp12/mmGasA01CuY1cp12Bv1.geo";
// Include "../A01CuY1cp12/mmGasA01CuY1cp12Bv2.geo";
// Include "../A01CuY1cp12/mmGasA01CuY1cp12CompLab.pro";
// Include "../A01CuY1cp12/mmGasA01CuY1cp12Param.geo";
// Include "../A01CuY1cp12/mmGasA01CuY1cp12ParamBv0.geo";
// Include "../A01CuY1cp12/mmGasA01CuY1cp12ParamBv1.geo";
// Include "../A01CuY1cp12/mmGasA01CuY1cp12ParamBv2.geo";

// Include "../A02Bd2pcb12/mmGasA02Bd2pcb12.geo";
// Include "../A02Bd2pcb12/mmGasA02Bd2pcb12T.geo";
// Include "../A02Bd2pcb12/mmGasA02Bd2pcb12CompLab.pro";
// Include "../A02Bd2pcb12/mmGasA02Bd2pcb12Param.geo";
// Include "../A02Bd2pcb12/mmGasA02Bd2pcb12ParamT.geo";

// Include "../A02BdX2pcb12/mmGasA02BdX2pcb12.geo";
// Include "../A02BdX2pcb12/mmGasA02BdX2pcb12T.geo";
// Include "../A02BdX2pcb12/mmGasA02BdX2pcb12CompLab.pro";
// Include "../A02BdX2pcb12/mmGasA02BdX2pcb12Param.geo";
// Include "../A02BdX2pcb12/mmGasA02BdX2pcb12ParamT.geo";

// Include "../A02CuX2cp12/mmGasA02CuX2cp12.geo";
// Include "../A02CuX2cp12/mmGasA02CuX2cp12T.geo";
// Include "../A02CuX2cp12/mmGasA02CuX2cp12CompLab.pro";
// Include "../A02CuX2cp12/mmGasA02CuX2cp12Param.geo";
// Include "../A02CuX2cp12/mmGasA02CuX2cp12ParamT.geo";

// Include "../A03Bd0pil2cp12/mmGasA03Bd0pil2cp12.geo";
// Include "../A03Bd0pil2cp12/mmGasA03Bd0pil2cp12B.geo";
// Include "../A03Bd0pil2cp12/mmGasA03Bd0pil2cp12CompLab.pro";
// Include "../A03Bd0pil2cp12/mmGasA03Bd0pil2cp12Param.geo";
// Include "../A03Bd0pil2cp12/mmGasA03Bd0pil2cp12ParamT.geo";

// Include "../A04Cur0Wr12/mmGasA04Cur0Wr12.geo";
// Include "../A04Cur0Wr12/mmGasA04Cur0Wr12D2x1Wire.geo";
// Include "../A04Cur0Wr12/mmGasA04Cur0Wr12D2x2y2Wire.geo";
// Include "../A04Cur0Wr12/mmGasA04Cur0Wr12D2y1Wire.geo";
// Include "../A04Cur0Wr12/mmGasA04Cur0Wr12Param.geo";
// Include "../A04Cur0Wr12/mmGasA04Cur0Wr12S1x1y1Wire.geo";
// Include "../A04Cur0Wr12/mmGasA04Cur0Wr12S1x2Wire.geo";
// Include "../A04Cur0Wr12/mmGasA04Cur0Wr12S1y2Wire.geo";
// Include "../A04Cur0Wr12/mmGasA04Cur0Wr12Tx1y1x2y2Wire.geo";

// Include "../A04Str0Wr12/mmGasA04Str0Wr12.geo";
// Include "../A04Str0Wr12/mmGasA04Str0Wr12D2x1Wire.geo";
// Include "../A04Str0Wr12/mmGasA04Str0Wr12D2x2y2Wire.geo";
// Include "../A04Str0Wr12/mmGasA04Str0Wr12D2y1Wire.geo";
// Include "../A04Str0Wr12/mmGasA04Str0Wr12Param.geo";
// Include "../A04Str0Wr12/mmGasA04Str0Wr12S1x1y1Wire.geo";
// Include "../A04Str0Wr12/mmGasA04Str0Wr12S1x2Wire.geo";
// Include "../A04Str0Wr12/mmGasA04Str0Wr12S1y2Wire.geo";
// Include "../A04Str0Wr12/mmGasA04Str0Wr12Tx1y1x2y2Wire.geo";

// Include "../A04Wr12/mmGasA04Wr12CompLab.pro";
// Include "../A04Wr12/mmGasA04Wr12D2x1WireCompLab.pro";
// Include "../A04Wr12/mmGasA04Wr12D2x2y2WireCompLab.pro";
// Include "../A04Wr12/mmGasA04Wr12D2y1WireCompLab.pro";
// Include "../A04Wr12/mmGasA04Wr12S1x1y1WireCompLab.pro";
// Include "../A04Wr12/mmGasA04Wr12S1x2WireCompLab.pro";
// Include "../A04Wr12/mmGasA04Wr12S1y2WireCompLab.pro";
// Include "../A04Wr12/mmGasA04Wr12Tx1y1x2y2WireCompLab.pro";

// Include "../A05Param/mmGasA05CompLab.pro";
// Include "../A05Param/mmGasA05MaterialDatabase.pro";
// Include "../A05Param/mmGasA05MaterialMacros.pro";
// Include "../A05Param/mmGasA05MeshOp.pro";

// Include "../A05Param/mmGasA05Param.geo";

// Include "../A06Solver/mmGasA06SolverElectrostaticsV.pro";
// Include "../A06Solver/mmGasA06SolverElectrostaticsV2.pro";
// Include "../A06Solver/mmGasA06SolverIntegrationLib.pro";
// Include "../A06Solver/mmGasA06SolverJacobianLib.pro";
// Include "../A06Solver/mmGasA06SolverOp.pro";

// Include "../A07PipeData/mmGasA07PipeData.pro";


/// GEOMETRY MODULE
/// GROUND COPPER STRIP STRUCTURE
//----------------------------------------------------------------------------------------------------------------------------------------------------------------------------------------------------------
//// Variable designation: geometrical element, structural reference, interface / description, number


/// LINES
//----------------------------------------------------------------------------------------------------------------------------------------------------------------------------------------------------------
//// Copper strip border conductor lines


/// LOWER COPPER CONDUCTOR LEVEL 1
//----------------------------------------------------------
//// Bottom upper copper boundary 0cp1 - level 1

lA00cp1Bb1 = newl; Line ( lA00cp1Bb1 ) = { ptExA00cp1C1, ptExA00cp1C2 };
// Transfinite Line { lA00cp1Bb1 } = lA00cp1Bb1;
lA00cp1Bb2 = newl; Line ( lA00cp1Bb2 ) = { ptExA00cp1C2, ptExA00cp1C3 };
// Transfinite Line { lA00cp1Bb2 } = lA00cp1Bb2;
lA00cp1Bb3 = newl; Line ( lA00cp1Bb3 ) = { ptExA00cp1C3, ptExA00cp1C4 };
// Transfinite Line { lA00cp1Bb3 } = lA00cp1Bb3;
lA00cp1Bb4 = newl; Line ( lA00cp1Bb4 ) = { ptExA00cp1C4, ptExA00cp1C1 };
// Transfinite Line { lA00cp1Bb4 } = lA00cp1Bb4;


//----------------------------------------------------------
//// Connect the upper and lower points with lines to form the conductor - level 1

lA00cp12Ib1 = newl; Line ( lA00cp12Ib1 ) = { ptExA00cp2C1, ptExA00cp1C1 };
// Transfinite Line { lA00cp12Ib1 } = lA00cp12Ib1;
lA00cp12Ib2 = newl; Line ( lA00cp12Ib2 ) = { ptExA00cp2C2, ptExA00cp1C2 };
// Transfinite Line { lA00cp12Ib2 } = lA00cp12Ib2;
lA00cp12Ib3 = newl; Line ( lA00cp12Ib3 ) = { ptExA00cp2C3, ptExA00cp1C3 };
// Transfinite Line { lA00cp12Ib3 } = lA00cp12Ib3;
lA00cp12Ib4 = newl; Line ( lA00cp12Ib4 ) = { ptExA00cp2C4, ptExA00cp1C4 };
// Transfinite Line { lA00cp12Ib4 } = lA00cp12Ib4;


//----------------------------------------------------------
//// Upper copper boundary 0cp2 - level 2

lA00cp2Tb1 = newl; Line ( lA00cp2Tb1 ) = { ptExA00cp2C1, ptExA00cp2C2 };
// Transfinite Line { lA00cp2Tb1 } = lA00cp2Tb1;
lA00cp2Tb2 = newl; Line ( lA00cp2Tb2 ) = { ptExA00cp2C2, ptExA00cp2C3 };
// Transfinite Line { lA00cp2Tb2 } = lA00cp2Tb2;
lA00cp2Tb3 = newl; Line ( lA00cp2Tb3 ) = { ptExA00cp2C3, ptExA00cp2C4 };
// Transfinite Line { lA00cp2Tb3 } = lA00cp2Tb3;
lA00cp2Tb4 = newl; Line ( lA00cp2Tb4 ) = { ptExA00cp2C4, ptExA00cp2C1 };
// Transfinite Line { lA00cp2Tb4 } = lA00cp2Tb4;



/// LINES
//----------------------------------------------------------------------------------------------------------------------------------------------------------------------------------------------------------
//// Strip lines

For m1 In { 0:numA00cpUy }
  For n1 In { 0:numA00cpUx }


    //----------------------------------------------------------
    //// Lower boundary - level 1

    lA00cp1Bb1~{m1}~{n1} = newl; Line ( lA00cp1Bb1~{m1}~{n1} ) = { ptA00cp1C1~{m1}~{n1}, ptA00cp1C2~{m1}~{n1} };
    // Transfinite Line { lA00cp1Bb1~{m1}~{n1} } = lA00cp1Bb1~{m1}~{n1};
    lA00cp1Bb1A[] += lA00cp1Bb1~{m1}~{n1};
    // Delete { Line{ lA00cp1Bb1~{m1}~{n1} }; }
    lA00cp1Bb2~{m1}~{n1} = newl; Line ( lA00cp1Bb2~{m1}~{n1} ) = { ptA00cp1C2~{m1}~{n1}, ptA00cp1C3~{m1}~{n1} };
    // Transfinite Line { lA00cp1Bb2~{m1}~{n1} } = lA00cp1Bb2~{m1}~{n1};
    lA00cp1Bb2A[] += lA00cp1Bb2~{m1}~{n1};
    // Delete { Line{ lA00cp1Bb2~{m1}~{n1} }; }
    lA00cp1Bb3~{m1}~{n1} = newl; Line ( lA00cp1Bb3~{m1}~{n1} ) = { ptA00cp1C3~{m1}~{n1}, ptA00cp1C4~{m1}~{n1} };
    // Transfinite Line { lA00cp1Bb3~{m1}~{n1} } = lA00cp1Bb3~{m1}~{n1};
    lA00cp1Bb3A[] += lA00cp1Bb3~{m1}~{n1};
    // Delete { Line{ lA00cp1Bb3~{m1}~{n1} }; }
    lA00cp1Bb4~{m1}~{n1} = newl; Line ( lA00cp1Bb4~{m1}~{n1} ) = { ptA00cp1C4~{m1}~{n1}, ptA00cp1C1~{m1}~{n1} };
    // Transfinite Line { lA00cp1Bb4~{m1}~{n1} } = lA00cp1Bb4~{m1}~{n1};
    lA00cp1Bb4A[] += lA00cp1Bb4~{m1}~{n1};
    // Delete { Line{ lA00cp1Bb4~{m1}~{n1} }; }

    //----------------------------------------------------------
    //// Upper boundary - level 2

    lA00cp2Tb1~{m1}~{n1} = newl; Line ( lA00cp2Tb1~{m1}~{n1} ) = { ptA00cp2C1~{m1}~{n1}, ptA00cp2C2~{m1}~{n1} };
    // Transfinite Line { lA00cp2Tb1~{m1}~{n1} } = lA00cp2Tb1~{m1}~{n1};
    lA00cp2Tb1A[] += lA00cp2Tb1~{m1}~{n1};
    lA00cp2Tb2~{m1}~{n1} = newl; Line ( lA00cp2Tb2~{m1}~{n1} ) = { ptA00cp2C2~{m1}~{n1}, ptA00cp2C3~{m1}~{n1} };
    // Transfinite Line { lA00cp2Tb2~{m1}~{n1} } = lA00cp2Tb2~{m1}~{n1};
    lA00cp2Tb2A[] += lA00cp2Tb2~{m1}~{n1};
    lA00cp2Tb3~{m1}~{n1} = newl; Line ( lA00cp2Tb3~{m1}~{n1} ) = { ptA00cp2C3~{m1}~{n1}, ptA00cp2C4~{m1}~{n1} };
    // Transfinite Line { lA00cp2Tb3~{m1}~{n1} } = lA00cp2Tb3~{m1}~{n1};
    lA00cp2Tb3A[] += lA00cp2Tb3~{m1}~{n1};
    lA00cp2Tb4~{m1}~{n1} = newl; Line ( lA00cp2Tb4~{m1}~{n1} ) = { ptA00cp2C4~{m1}~{n1}, ptA00cp2C1~{m1}~{n1} };
    // Transfinite Line { lA00cp2Tb4~{m1}~{n1} } = lA00cp2Tb4~{m1}~{n1};
    lA00cp2Tb4A[] += lA00cp2Tb4~{m1}~{n1};
 
    //----------------------------------------------------------
    //// Intermediate boundary - connect the upper and lower points with lines to form the strip conductor

    lA00cp12Ib1~{m1}~{n1} = newl; Line ( lA00cp12Ib1~{m1}~{n1} ) = { ptA00cp2C1~{m1}~{n1}, ptA00cp1C1~{m1}~{n1} };
    // Transfinite Line { lA00cp12Ib1~{m1}~{n1} } = lA00cp12Ib1~{m1}~{n1};
    lA00cp12Ib1A[] += lA00cp12Ib1~{m1}~{n1};
    lA00cp12Ib2~{m1}~{n1} = newl; Line ( lA00cp12Ib2~{m1}~{n1} ) = { ptA00cp2C2~{m1}~{n1}, ptA00cp1C2~{m1}~{n1} };
    // Transfinite Line { lA00cp12Ib2~{m1}~{n1} } = lA00cp12Ib2~{m1}~{n1};
    lA00cp12Ib2A[] += lA00cp12Ib2~{m1}~{n1};
    lA00cp12Ib3~{m1}~{n1} = newl; Line ( lA00cp12Ib3~{m1}~{n1} ) = { ptA00cp2C3~{m1}~{n1}, ptA00cp1C3~{m1}~{n1} };
    // Transfinite Line { lA00cp12Ib3~{m1}~{n1} } = lA00cp12Ib3~{m1}~{n1};
    lA00cp12Ib3A[] += lA00cp12Ib3~{m1}~{n1};
    lA00cp12Ib4~{m1}~{n1} = newl; Line ( lA00cp12Ib4~{m1}~{n1} ) = { ptA00cp2C4~{m1}~{n1}, ptA00cp1C4~{m1}~{n1} };
    // Transfinite Line { lA00cp12Ib4~{m1}~{n1} } = lA00cp12Ib4~{m1}~{n1};
    lA00cp12Ib4A[] += lA00cp12Ib4~{m1}~{n1};


 EndFor
EndFor


/// SURFACES
//----------------------------------------------------------------------------------------------------------------------------------------------------------------------------------------------------------
//// Copper strip surfaces

For m1 In { 0:numA00cpUy }
 For n1 In { 0:numA00cpUx }


    //----------------------------------------------------------
    //// Side boundary

    llA00cp12Ib1~{m1}~{n1} = newll; Line Loop ( llA00cp12Ib1~{m1}~{n1} ) = { lA00cp1Bb1~{m1}~{n1}, -lA00cp12Ib2~{m1}~{n1}, -lA00cp2Tb1~{m1}~{n1}, lA00cp12Ib1~{m1}~{n1} };
    psA00cp12Ib1~{m1}~{n1} = news; Plane Surface ( psA00cp12Ib1~{m1}~{n1} ) = { llA00cp12Ib1~{m1}~{n1} };
    surfA00cp12Ib1A[] += psA00cp12Ib1~{m1}~{n1};
    // Transfinite Surface { psA00cp12Ib1~{m1}~{n1} };
    // Recombine Surface { psA00cp12Ib1~{m1}~{n1} };

    //----------------------------------------------------------
    //// Side boundary

    llA00cp12Ib2~{m1}~{n1} = newll; Line Loop ( llA00cp12Ib2~{m1}~{n1} ) = { lA00cp1Bb2~{m1}~{n1}, -lA00cp12Ib3~{m1}~{n1}, -lA00cp2Tb2~{m1}~{n1}, lA00cp12Ib2~{m1}~{n1} };
    psA00cp12Ib2~{m1}~{n1} = news; Plane Surface ( psA00cp12Ib2~{m1}~{n1} ) = { llA00cp12Ib2~{m1}~{n1} };
    surfA00cp12Ib2A[] += psA00cp12Ib2~{m1}~{n1};
    // Transfinite Surface { psA00cp12Ib2~{m1}~{n1} };
    // Recombine Surface { psA00cp12Ib2~{m1}~{n1} };

    //----------------------------------------------------------
    //// Side boundary

    llA00cp12Ib3~{m1}~{n1} = newll; Line Loop ( llA00cp12Ib3~{m1}~{n1} ) = { lA00cp1Bb3~{m1}~{n1}, -lA00cp12Ib4~{m1}~{n1}, -lA00cp2Tb3~{m1}~{n1}, lA00cp12Ib3~{m1}~{n1} };
    psA00cp12Ib3~{m1}~{n1} = news; Plane Surface ( psA00cp12Ib3~{m1}~{n1} ) = { llA00cp12Ib3~{m1}~{n1} };
    surfA00cp12Ib3A[] += psA00cp12Ib3~{m1}~{n1};
    // Transfinite Surface { psA00cp12Ib3~{m1}~{n1} };
    // Recombine Surface { psA00cp12Ib3~{m1}~{n1} };

    //----------------------------------------------------------
    //// Side boundary

    llA00cp12Ib4~{m1}~{n1} = newll; Line Loop ( llA00cp12Ib4~{m1}~{n1} ) = { lA00cp1Bb4~{m1}~{n1}, -lA00cp12Ib1~{m1}~{n1}, -lA00cp2Tb4~{m1}~{n1}, lA00cp12Ib4~{m1}~{n1} };
    psA00cp12Ib4~{m1}~{n1} = news; Plane Surface ( psA00cp12Ib4~{m1}~{n1} ) = { llA00cp12Ib4~{m1}~{n1} };
    surfA00cp12Ib4A[] += psA00cp12Ib4~{m1}~{n1};
    // Transfinite Surface { psA00cp12Ib4~{m1}~{n1} };
    // Recombine Surface { psA00cp12Ib4~{m1}~{n1} };

    //----------------------------------------------------------
    //// Bottom boundary

    llA00cp12Bb5~{m1}~{n1} = newll; Line Loop ( llA00cp12Bb5~{m1}~{n1} ) = { lA00cp1Bb1~{m1}~{n1}, lA00cp1Bb2~{m1}~{n1}, lA00cp1Bb3~{m1}~{n1}, lA00cp1Bb4~{m1}~{n1} };
    llA00cp12Bb5A[] += llA00cp12Bb5~{m1}~{n1};
    psA00cp12Bb5A~{m1}~{n1} = news; Plane Surface ( psA00cp12Bb5A~{m1}~{n1} ) = { llA00cp12Bb5~{m1}~{n1} };
    surfA00cp1Bb5A[] += psA00cp12Bb5A~{m1}~{n1};
    // Transfinite Surface { psA00cp12Bb5A~{m1}~{n1} };
    // Recombine Surface { psA00cp12Bb5A~{m1}~{n1} };

    //----------------------------------------------------------
    //// Top boundary

    llA00cp12Tb6~{m1}~{n1} = newll; Line Loop ( llA00cp12Tb6~{m1}~{n1} ) = { lA00cp2Tb1~{m1}~{n1}, lA00cp2Tb2~{m1}~{n1}, lA00cp2Tb3~{m1}~{n1}, lA00cp2Tb4~{m1}~{n1} };
    psA00cp12Tb6A~{m1}~{n1} = news; Plane Surface ( psA00cp12Tb6A~{m1}~{n1} ) = { llA00cp12Tb6~{m1}~{n1} };
    surfA00cp2Tb6A[] += psA00cp12Tb6A~{m1}~{n1};
    // Transfinite Surface { psA00cp12Tb6A~{m1}~{n1} };
    // Recombine Surface { psA00cp12Tb6A~{m1}~{n1} };

    //----------------------------------------------------------
    //// Copper strip and surface loop - anode surface loop

    slA00cpSb1~{m1}~{n1} = newsl; Surface Loop ( slA00cpSb1~{m1}~{n1} ) = { psA00cp12Ib1~{m1}~{n1}, psA00cp12Ib2~{m1}~{n1}, psA00cp12Ib3~{m1}~{n1}, psA00cp12Ib4~{m1}~{n1}, psA00cp12Bb5A~{m1}~{n1}, psA00cp12Tb6A~{m1}~{n1} };
    slA00cpSb1A1[] += slA00cpSb1~{m1}~{n1};
    slA00cpSb1[] = { psA00cp12Ib1~{m1}~{n1}, psA00cp12Ib2~{m1}~{n1}, psA00cp12Ib3~{m1}~{n1}, psA00cp12Ib4~{m1}~{n1}, psA00cp12Bb5A~{m1}~{n1}, psA00cp12Tb6A~{m1}~{n1} };   
    slA00cpSb1A2[] += { psA00cp12Ib1~{m1}~{n1}, psA00cp12Ib2~{m1}~{n1}, psA00cp12Ib3~{m1}~{n1}, psA00cp12Ib4~{m1}~{n1}, psA00cp12Bb5A~{m1}~{n1}, psA00cp12Tb6A~{m1}~{n1} };
    physsurfA00cpSb1~{m1}~{n1} = newreg; Physical Surface ( physsurfA00cpSb1~{m1}~{n1} ) = { slA00cpSb1[] };


 EndFor
EndFor

For m1 In { 0:numA00cpUy }
 For n1 In { 0:numA00cpUx }

volA00cpV1~{m1}~{n1} = newv; Volume ( volA00cpV1~{m1}~{n1} ) = { slA00cpSb1~{m1}~{n1} };
physvolA00cpV1~{m1}~{n1} = newreg; Physical Volume ( physvolA00cpV1~{m1}~{n1} ) = { volA00cpV1~{m1}~{n1} };


 EndFor
EndFor


/// SURFACE LOOP
//----------------------------------------------------------------------------------------------------------------------------------------------------------------------------------------------------------
//// Strip electrode surface loop - lower electrode surface loop

//----------------------------------------------------------
//// Strip copper strip layers

// slA00cpTSb1[] = newsl; Surface Loop ( slA00cpTSb1 ) = { surfA00cp12Ib1A[], surfA00cp12Ib2A[], surfA00cp12Ib3A[], surfA00cp12Ib4A[], surfA00cp1Bb5A[], surfA00cp2Tb6A[] };
// Transfinite Surface { slA00cpTSb1[] };
// Recombine Surface { slA00cpTSb1[] };

// slA00cpBSb1[] += { surfA00cp1Bb5A[] };
// Transfinite Surface { slA00cpBSb1[] };
// Recombine Surface { slA00cpBSb1[] };

//----------------------------------------------------------
//// Strip electrode surface loop - upper electrode surface loop

// slA00cpSb1 = newsl; Surface Loop ( slA00cpSb1 ) = { surfA00cp12Ib1A[], surfA00cp12Ib2A[], surfA00cp12Ib3A[], surfA00cp12Ib4A[], surfA00cp1Bb5A[], surfA00cp2Tb6A[] };
// slA00cpSb1A[] += slA00cpSb1;

		// surfExA00cp1[] = {};
        // vA00cp1[] = {};
        // sA00cp1[] = {};
        // surfExA00cp1[] = { surfA00cp1Bb5A[] };
        // surfExA00cp1[] = Extrude {0, 0, (lvlA00cp2 - lvlA00cp1) } { Surface { surfExA00cp1[] }; Recombine;
        // };

          // vA00cp1[] += surfExA00cp1[1];
          // vtA00cp1[] += vA00cp1[];
          // sA00cp1[] += surfExA00cp1[{2:5}];
          // stA00cp1[] += sA00cp1[];


/// VOLUME
//----------------------------------------------------------------------------------------------------------------------------------------------------------------------------------------------------------
//// Volume

// volA00cpV1 = newv; Volume ( volA00cpV1 ) = { slA00cpSb1[] };
volA00cpV1 = newv; Volume ( volA00cpV1 ) = { slA00cpSb1A1[] };


/// PHYSICAL SURFACE
//----------------------------------------------------------------------------------------------------------------------------------------------------------------------------------------------------------
//// Physical surfaces - strip copper conductor electrode surface

physsurfA00cpSb1 = newreg; 
// Physical Surface ( physsurfA00cpSb1 ) = { surfA00cp12Ib1A[], surfA00cp12Ib2A[], surfA00cp12Ib3A[], surfA00cp12Ib4A[], surfA00cp1Bb5A[], surfA00cp2Tb6A[] };
Physical Surface ( physsurfA00cpSb1 ) = { slA00cpSb1A2[] };


/// PHYSICAL VOLUME
//----------------------------------------------------------------------------------------------------------------------------------------------------------------------------------------------------------
//// Physical volume - strip copper conductor electrode volume

physvolA00cpV1 = newreg;
Physical Volume ( physvolA00cpV1 ) = { volA00cpV1 };


/// DIAGRAM
//----------------------------------------------------------
//// Copper anode parameters

//      |            |
//      |            |
// ----y1b----------x1b----
//      2            3
//
//      1            4
// ----y1a----------x1a----
//      |            |
//      |            |


// End