// Include "../A00Assembly/mmGasA00Assembly.geo";
// Include "../A00Assembly/mmGasA00AssemblyParam.geo";

// Include "../A00BdG0pcb12/mmGasA00BdG0pcb12.geo";
// Include "../A00BdG0pcb12/mmGasA00BdG0pcb12T.geo";
// Include "../A00BdG0pcb12/mmGasA00BdG0pcb12CompLab.pro";
Include "../A00BdG0pcb12/mmGasA00BdG0pcb12Param.geo";
// Include "../A00BdG0pcb12/mmGasA00BdG0pcb12ParamTv0.geo";
// Include "../A00BdG0pcb12/mmGasA00BdG0pcb12ParamTv1.geo";
// Include "../A00BdG0pcb12/mmGasA00BdG0pcb12ParamTv2.geo";

Include "../A00CuG0cp12/mmGasA00CuG0cp12.geo";
// Include "../A00CuG0cp12/mmGasA00CuG0cp12T.geo";
// Include "../A00CuG0cp12/mmGasA00CuG0cp12Bv0.geo";
// Include "../A00CuG0cp12/mmGasA00CuG0cp12CompLab.pro";
// Include "../A00CuG0cp12/mmGasA00CuG0cp12Param.geo";
// Include "../A00CuG0cp12/mmGasA00CuG0cp12ParamT.geo";
// Include "../A00CuG0cp12/mmGasA00CuG0cp12ParamBv0.geo";
// Include "../A00CuG0cp12/mmGasA00CuGP0cp12.geo";
// Include "../A00CuG0cp12/mmGasA00CuGP0cp12Param.geo";

// Include "../A00Bd0pcb12/mmGasA00Bd0pcb12.geo";
// Include "../A00Bd0pcb12/mmGasA00Bd0pcb12T.geo";
// Include "../A00Bd0pcb12/mmGasA00Bd0pcb12CompLab.pro";
// Include "../A00Bd0pcb12/mmGasA00Bd0pcb12Param.geo";
// Include "../A00Bd0pcb12/mmGasA00Bd0pcb12ParamT.geo";

// Include "../A01BdX1pcb12/mmGasA01BdX1pcb12A.geo";
// Include "../A01BdX1pcb12/mmGasA01BdX1pcb12CompLab.pro";
// Include "../A01BdX1pcb12/mmGasA01BdX1pcb12Param.geo";
// Include "../A01BdX1pcb12/mmGasA01BdX1pcb12ParamT.geo";

// Include "../A01CuX1cp12/mmGasA01CuX1cp12.geo";
// Include "../A01CuX1cp12/mmGasA01CuX1cp12T.geo";
// Include "../A01CuX1cp12/mmGasA01CuX1cp12Bv0.geo";
// Include "../A01CuX1cp12/mmGasA01CuX1cp12Bv1.geo";
// Include "../A01CuX1cp12/mmGasA01CuX1cp12Bv2.geo";
// Include "../A01CuX1cp12/mmGasA01CuX1cp12CompLab.pro";
// Include "../A01CuX1cp12/mmGasA01CuX1cp12Param.geo";
// Include "../A01CuX1cp12/mmGasA01CuX1cp12ParamT.geo";
// Include "../A01CuX1cp12/mmGasA01CuX1cp12ParamBv0.geo";
// Include "../A01CuX1cp12/mmGasA01CuX1cp12ParamBv1.geo";
// Include "../A01CuX1cp12/mmGasA01CuX1cp12ParamBv2.geo";

// Include "../A01Bd1pcb12/mmGasA01Bd1pcb12.geo";
// Include "../A01Bd1pcb12/mmGasA01Bd1pcb12T.geo";
// Include "../A01Bd1pcb12/mmGasA01Bd1pcb12CompLab.pro";
// Include "../A01Bd1pcb12/mmGasA01Bd1pcb12Param.geo";
// Include "../A01Bd1pcb12/mmGasA01Bd1pcb12ParamTv0.geo";
// Include "../A01Bd1pcb12/mmGasA01Bd1pcb12ParamTv1.geo";
// Include "../A01Bd1pcb12/mmGasA01Bd1pcb12ParamTv2.geo";

// Include "../A01BdY1pcb12/mmGasA01BdY1pcb12.geo";
// Include "../A01BdY1pcb12/mmGasA01BdY1pcb12T.geo";
// Include "../A01BdY1pcb12/mmGasA01BdY1pcb12CompLab.pro";
// Include "../A01BdY1pcb12/mmGasA01BdY1pcb12Param.geo";
// Include "../A01BdY1pcb12/mmGasA01BdY1pcb12ParamTv0.geo";
// Include "../A01BdY1pcb12/mmGasA01BdY1pcb12ParamTv1.geo";
// Include "../A01BdY1pcb12/mmGasA01BdY1pcb12ParamTv2.geo";

// Include "../A01CuY1cp12/mmGasA01CuY1cp12.geo";
// Include "../A01CuY1cp12/mmGasA01CuY1cp12T.geo";
// Include "../A01CuY1cp12/mmGasA01CuY1cp12Bv0.geo";
// Include "../A01CuY1cp12/mmGasA01CuY1cp12Bv1.geo";
// Include "../A01CuY1cp12/mmGasA01CuY1cp12Bv2.geo";
// Include "../A01CuY1cp12/mmGasA01CuY1cp12CompLab.pro";
// Include "../A01CuY1cp12/mmGasA01CuY1cp12Param.geo";
// Include "../A01CuY1cp12/mmGasA01CuY1cp12ParamBv0.geo";
// Include "../A01CuY1cp12/mmGasA01CuY1cp12ParamBv1.geo";
// Include "../A01CuY1cp12/mmGasA01CuY1cp12ParamBv2.geo";

// Include "../A02Bd2pcb12/mmGasA02Bd2pcb12.geo";
// Include "../A02Bd2pcb12/mmGasA02Bd2pcb12T.geo";
// Include "../A02Bd2pcb12/mmGasA02Bd2pcb12CompLab.pro";
// Include "../A02Bd2pcb12/mmGasA02Bd2pcb12Param.geo";
// Include "../A02Bd2pcb12/mmGasA02Bd2pcb12ParamT.geo";

// Include "../A02BdX2pcb12/mmGasA02BdX2pcb12.geo";
// Include "../A02BdX2pcb12/mmGasA02BdX2pcb12T.geo";
// Include "../A02BdX2pcb12/mmGasA02BdX2pcb12CompLab.pro";
// Include "../A02BdX2pcb12/mmGasA02BdX2pcb12Param.geo";
// Include "../A02BdX2pcb12/mmGasA02BdX2pcb12ParamT.geo";

// Include "../A02CuX2cp12/mmGasA02CuX2cp12.geo";
// Include "../A02CuX2cp12/mmGasA02CuX2cp12T.geo";
// Include "../A02CuX2cp12/mmGasA02CuX2cp12CompLab.pro";
// Include "../A02CuX2cp12/mmGasA02CuX2cp12Param.geo";
// Include "../A02CuX2cp12/mmGasA02CuX2cp12ParamT.geo";

// Include "../A03Bd0pil2cp12/mmGasA03Bd0pil2cp12.geo";
// Include "../A03Bd0pil2cp12/mmGasA03Bd0pil2cp12B.geo";
// Include "../A03Bd0pil2cp12/mmGasA03Bd0pil2cp12CompLab.pro";
// Include "../A03Bd0pil2cp12/mmGasA03Bd0pil2cp12Param.geo";
// Include "../A03Bd0pil2cp12/mmGasA03Bd0pil2cp12ParamT.geo";

// Include "../A04Cur0Wr12/mmGasA04Cur0Wr12.geo";
// Include "../A04Cur0Wr12/mmGasA04Cur0Wr12D2x1Wire.geo";
// Include "../A04Cur0Wr12/mmGasA04Cur0Wr12D2x2y2Wire.geo";
// Include "../A04Cur0Wr12/mmGasA04Cur0Wr12D2y1Wire.geo";
// Include "../A04Cur0Wr12/mmGasA04Cur0Wr12Param.geo";
// Include "../A04Cur0Wr12/mmGasA04Cur0Wr12S1x1y1Wire.geo";
// Include "../A04Cur0Wr12/mmGasA04Cur0Wr12S1x2Wire.geo";
// Include "../A04Cur0Wr12/mmGasA04Cur0Wr12S1y2Wire.geo";
// Include "../A04Cur0Wr12/mmGasA04Cur0Wr12Tx1y1x2y2Wire.geo";

// Include "../A04Str0Wr12/mmGasA04Str0Wr12.geo";
// Include "../A04Str0Wr12/mmGasA04Str0Wr12D2x1Wire.geo";
// Include "../A04Str0Wr12/mmGasA04Str0Wr12D2x2y2Wire.geo";
// Include "../A04Str0Wr12/mmGasA04Str0Wr12D2y1Wire.geo";
// Include "../A04Str0Wr12/mmGasA04Str0Wr12Param.geo";
// Include "../A04Str0Wr12/mmGasA04Str0Wr12S1x1y1Wire.geo";
// Include "../A04Str0Wr12/mmGasA04Str0Wr12S1x2Wire.geo";
// Include "../A04Str0Wr12/mmGasA04Str0Wr12S1y2Wire.geo";
// Include "../A04Str0Wr12/mmGasA04Str0Wr12Tx1y1x2y2Wire.geo";

// Include "../A04Wr12/mmGasA04Wr12CompLab.pro";
// Include "../A04Wr12/mmGasA04Wr12D2x1WireCompLab.pro";
// Include "../A04Wr12/mmGasA04Wr12D2x2y2WireCompLab.pro";
// Include "../A04Wr12/mmGasA04Wr12D2y1WireCompLab.pro";
// Include "../A04Wr12/mmGasA04Wr12S1x1y1WireCompLab.pro";
// Include "../A04Wr12/mmGasA04Wr12S1x2WireCompLab.pro";
// Include "../A04Wr12/mmGasA04Wr12S1y2WireCompLab.pro";
// Include "../A04Wr12/mmGasA04Wr12Tx1y1x2y2WireCompLab.pro";

// Include "../A05Param/mmGasA05CompLab.pro";
// Include "../A05Param/mmGasA05MaterialDatabase.pro";
// Include "../A05Param/mmGasA05MaterialMacros.pro";
// Include "../A05Param/mmGasA05MeshOp.pro";

// Include "../A05Param/mmGasA05Param.geo";

// Include "../A06Solver/mmGasA06SolverElectrostaticsV.pro";
// Include "../A06Solver/mmGasA06SolverElectrostaticsV2.pro";
// Include "../A06Solver/mmGasA06SolverIntegrationLib.pro";
// Include "../A06Solver/mmGasA06SolverJacobianLib.pro";
// Include "../A06Solver/mmGasA06SolverOp.pro";

// Include "../A07PipeData/mmGasA07PipeData.pro";


/// GEOMETRY MODULE 0
/// PCB STRUCTURE
//----------------------------------------------------------------------------------------------------------------------------------------------------------------------------------------------------------
//// Variable designation: geometrical element, structural reference, interface / description, number


/// LINES
//----------------------------------------------------------------------------------------------------------------------------------------------------------------------------------------------------------
//// Border lines


/// PCB LEVEL 0
//----------------------------------------------------------
//// Connect the upper and lower points with lines to form the PCB 0 layer

/*
lA00pcb12Ib1 = newl; Line ( lA00pcb12Ib1 ) = { ptExA00cp1C1, ptExA00cp1C1 };
// Transfinite Line { lA00pcb12Ib1 } = lA00pcb12Ib1;
lA00pcb12Ib2 = newl; Line ( lA00pcb12Ib2 ) = { ptExA00cp1C2, ptExA00cp1C2 };
// Transfinite Line { lA00pcb12Ib2 } = lA00pcb12Ib2;
lA00pcb12Ib3 = newl; Line ( lA00pcb12Ib3 ) = { ptExA00cp1C3, ptExA00cp1C3 };
// Transfinite Line { lA00pcb12Ib3 } = lA00pcb12Ib3;
lA00pcb12Ib4 = newl; Line ( lA00pcb12Ib4 ) = { ptExA00cp1C4, ptExA00cp1C4 };
// Transfinite Line { lA00pcb12Ib4 } = lA00pcb12Ib4;

//----------------------------------------------------------
//// Connect the upper and lower copper conductor - level 0

// lA00BdG0pcb12Ib1 = newl; Line ( lA00BdG0pcb12Ib1 ) = { ptExA00cp1C1, ptExA00cp1C1 };
// Transfinite Line { lA00BdG0pcb12Ib1 } = lA00BdG0pcb12Ib1;
// lA00BdG0pcb12Ib2 = newl; Line ( lA00BdG0pcb12Ib2 ) = { ptExA00cp1C2, ptExA00cp1C2 };
// Transfinite Line { lA00BdG0pcb12Ib2 } = lA00BdG0pcb12Ib2;
// lA00BdG0pcb12Ib3 = newl; Line ( lA00BdG0pcb12Ib3 ) = { ptExA00cp1C3, ptExA00cp1C3 };
// Transfinite Line { lA00BdG0pcb12Ib3 } = lA00BdG0pcb12Ib3;
// lA00BdG0pcb12Ib4 = newl; Line ( lA00BdG0pcb12Ib4 ) = { ptExA00cp1C4, ptExA00cp1C4 };
// Transfinite Line { lA00BdG0pcb12Ib4 } = lA00BdG0pcb12Ib4;

//----------------------------------------------------------
//// Connect the pcb to the lower copper conductor - level 0

lA00BdG0pcb12Ib1 = newl; Line ( lA00BdG0pcb12Ib1 ) = { ptExA00cp1C1, ptExA00cp1C1 };
// Transfinite Line { lA00BdG0pcb12Ib1 } = lA00BdG0pcb12Ib1;
lA00BdG0pcb12Ib2 = newl; Line ( lA00BdG0pcb12Ib2 ) = { ptExA00cp1C2, ptExA00cp1C2 };
// Transfinite Line { lA00BdG0pcb12Ib2 } = lA00BdG0pcb12Ib2;
lA00BdG0pcb12Ib3 = newl; Line ( lA00BdG0pcb12Ib3 ) = { ptExA00cp1C3, ptExA00cp1C3 };
// Transfinite Line { lA00BdG0pcb12Ib3 } = lA00BdG0pcb12Ib3;
lA00BdG0pcb12Ib4 = newl; Line ( lA00BdG0pcb12Ib4 ) = { ptExA00cp1C4, ptExA00cp1C4 };
// Transfinite Line { lA00BdG0pcb12Ib4 } = lA00BdG0pcb12Ib4;
*/

//----------------------------------------------------------
//// Connect the pcb to the upper level lower copper conductor - level 0

lA00BdG0pcb2Tb1 = newl; Line ( lA00BdG0pcb2Tb1 ) = { ptExA00cp1C1, ptExA00BdG0pcb2AdC1 };
// Transfinite Line { lA00BdG0pcb2Tb1 } = lA00BdG0pcb2Tb1;
lA00BdG0pcb2Tb2 = newl; Line ( lA00BdG0pcb2Tb2 ) = { ptExA00cp1C2, ptExA00BdG0pcb2AdC2 };
// Transfinite Line { lA00BdG0pcb2Tb2 } = lA00BdG0pcb2Tb2;
lA00BdG0pcb2Tb3 = newl; Line ( lA00BdG0pcb2Tb3 ) = { ptExA00cp1C3, ptExA00BdG0pcb2AdC3 };
// Transfinite Line { lA00BdG0pcb2Tb3 } = lA00BdG0pcb2Tb3;
lA00BdG0pcb2Tb4 = newl; Line ( lA00BdG0pcb2Tb4 ) = { ptExA00cp1C4, ptExA00BdG0pcb2AdC4 };
// Transfinite Line { lA00BdG0pcb2Tb4 } = lA00BdG0pcb2Tb4;

//----------------------------------------------------------
//// Connect the top electrode to the level 0 - PCB top

/*
ltExA00EcC1 = newl; Line ( ltExA00EcC1 ) = { ptExA00EcC1, ptExA00cp1C1 };
// Transfinite Line { ltExA00EcC1 } = ltExA00EcC1;
// ltExA00EcM12 = newl; Line ( ltExA00EcM12 ) = { ptExA00EcM12, ltExA0Ptmc1 };
// Transfinite Line { ltExA00EcM12 } = ltExA00EcM12;
ltExA00EcC2 = newl; Line ( ltExA00EcC2 ) = { ptExA00EcC2, ptExA00cp1C4 };
// Transfinite Line { ltExA00EcC2 } = ltExA00EcC2;
ltExA00EcC3 = newl; Line ( ltExA00EcC3 ) = { ptExA00EcC3, ptExA00cp1C3 };
// Transfinite Line { ltExA00EcC3 } = ltExA00EcC3;
// ltExA00EcM34 = newl; Line ( ltExA00EcM34 ) = { ptExA00EcM34, ltExA0Ptmc3 };
// Transfinite Line { ltExA00EcM34 } = ltExA00EcM34;
ltExA00EcC4 = newl; Line ( ltExA00EcC4 ) = { ptExA00EcC4, ptExA00cp1C2 };
// Transfinite Line { ltExA00EcC4 } = ltExA00EcC4;
*/

//----------------------------------------------------------
//// Connect the pcb top side - level 3 side lower lines

// lA00BdG0pcb1TbB1 = newl; Line ( lA00BdG0pcb1TbB1 ) = { ptExA00cp1C1, ptExA00cp1C2 };
// lA00BdG0pcb1TbR2 = newl; Line ( lA00BdG0pcb1TbR2 ) = { ptExA00cp1C2, ptExA00cp1C3 };
// lA00BdG0pcb1TbT3 = newl; Line ( lA00BdG0pcb1TbT3 ) = { ptExA00cp1C3, ptExA00cp1C4 };
// lA00BdG0pcb1TbL4 = newl; Line ( lA00BdG0pcb1TbL4 ) = { ptExA00cp1C4, ptExA00cp1C1 };

//----------------------------------------------------------
//// Connect the pcb top side - level 3 side lower lines

lA00BdG0pcb2TbB1 = newl; Line ( lA00BdG0pcb2TbB1 ) = { ptExA00cp1C1, ptExA00cp1C2 };
lA00BdG0pcb2TbR2 = newl; Line ( lA00BdG0pcb2TbR2 ) = { ptExA00BdG0pcb2AdC2, ptExA00BdG0pcb2AdC3 };
lA00BdG0pcb2TbT3 = newl; Line ( lA00BdG0pcb2TbT3 ) = { ptExA00cp1C3, ptExA00cp1C4 };
lA00BdG0pcb2TbL4 = newl; Line ( lA00BdG0pcb2TbL4 ) = { ptExA00BdG0pcb2AdC4, ptExA00BdG0pcb2AdC1 };


/// SURFACES
//----------------------------------------------------------------------------------------------------------------------------------------------------------------------------------------------------------
//// PCB top gas bounding surfaces

For m1 In { 0:numA00cpUy }
 For n1 In { 0:numA00cpUx }

//----------------------------------------------------------
//// PCB top gas bounding surfaces

/// Segmented top PCB intermediate lines

If( m1 > 0 )
	
	/// Middle

	lA00BdG0pcb2TIb1~{m1}~{n1} = newl; Line ( lA00BdG0pcb2TIb1~{m1}~{n1} ) = { ptA00cp1C2~{m1-1}~{n1}, ptA00cp1C1~{m1}~{n1} };
	lA00BdG0pcb2TIb1 = lA00BdG0pcb2TIb1~{m1}~{n1};
	lA00BdG0pcb2TIb1A[] += lA00BdG0pcb2TIb1~{m1}~{n1};

	lA00cp1Bb4S = lA00cp1Bb4~{m1}~{n1};

		lA00BdG0pcb2TIb4~{m1}~{n1} = newl; Line ( lA00BdG0pcb2TIb4~{m1}~{n1} ) = { ptA00cp1C3~{m1-1}~{n1}, ptA00cp1C4~{m1}~{n1} };
		lA00BdG0pcb2TIb4 = lA00BdG0pcb2TIb4~{m1}~{n1};
		lA00BdG0pcb2TIb4A[] += lA00BdG0pcb2TIb4~{m1}~{n1};

		lA00cp1Bb2S = lA00cp1Bb2~{m1-1}~{n1};

		/// Top side middle - 2

		llA00BdG0pcb2Tb3 = newll; Line Loop ( llA00BdG0pcb2Tb3 ) = { lA00BdG0pcb2TIb1, -lA00cp1Bb4S, -lA00BdG0pcb2TIb4, -lA00cp1Bb2S };
		psA00BdG0pcb2Tb3 = news; Plane Surface ( psA00BdG0pcb2Tb3 ) = { llA00BdG0pcb2Tb3 };
		psA00BdG0pcb2Tb3A[] += psA00BdG0pcb2Tb3;

EndIf

If( m1 == numA00cpUy && n1 == numA00cpUx )

	/// Side 2

	lA00BdG0pcb2TIb2 = newl; Line ( lA00BdG0pcb2TIb2 ) = { ptA00cp1C2~{numA00cpUy}~{numA00cpUx}, ptExA00BdG0pcb2AdC2 };

	/// Top side middle last - 3

	lA00BdG0pcb2TIb5 = newl; Line ( lA00BdG0pcb2TIb5 ) = { ptA00cp1C3~{numA00cpUy}~{numA00cpUx}, ptExA00BdG0pcb2AdC3 };
	// lA00BdG0pcb2TIb3a = newl; Line ( lA00BdG0pcb2TIb3a ) = { ptExA00BdG0pcb2AdC2, ptExA00BdG0pcb2AdC3 };
	// lA00BdG0pcb2TIb3b = newl; Line ( lA00BdG0pcb2TIb3b ) = { ptA00cp1C2~{numA00cpUy}~{numA00cpUx}, ptA00cp1C3~{numA00cpUy}~{numA00cpUx} };
	llA00BdG0pcb2Tb2 = newll; Line Loop ( llA00BdG0pcb2Tb2 ) = { lA00BdG0pcb2TIb2, lA00BdG0pcb2TbR2, -lA00BdG0pcb2TIb5, -lA00cp1Bb2~{numA00cpUy}~{numA00cpUx} };										// -lA00BdG0pcb2TIb3b
	psA00BdG0pcb2Tb2 = news; Plane Surface ( psA00BdG0pcb2Tb2 ) = { llA00BdG0pcb2Tb2 };

EndIf

// llA00BdG0pcb2TTb = newll; Line Loop ( llA00BdG0pcb2TTb ) = { llA00cp12Ib5A[], lA00BdG0pcb2TbB1, lA00BdG0pcb2Tb2, lA00BdG0pcb2TbR2, -lA00BdG0pcb2Tb3, lA00BdG0pcb2TbT3, lA00BdG0pcb2Tb4, lA00BdG0pcb2TbL4, -lA00BdG0pcb2Tb1 };


 EndFor
EndFor


//----------------------------------------------------------
//// PCB top gas bounding surfaces

/// Segmented top PCB intermediate lines

/// Side 1

lA00BdG0pcb2TIb0 = newl; Line ( lA00BdG0pcb2TIb0 ) = { ptExA00BdG0pcb2AdC1, ptA00cp1C1~{0}~{0} };

/// Top side middle first - 1

lA00BdG0pcb2TIb3 = newl; Line ( lA00BdG0pcb2TIb3 ) = { ptExA00BdG0pcb2AdC4, ptA00cp1C4~{0}~{0} };
// lA00BdG0pcb2TIb2a = newl; Line ( lA00BdG0pcb2TIb2a ) = { ptExA00BdG0pcb2AdC4, ptExA00BdG0pcb2AdC1 };
// lA00BdG0pcb2TIb2b = newl; Line ( lA00BdG0pcb2TIb2b ) = { ptA00cp1C1~{0}~{0}, ptA00cp1C4~{0}~{0} };
llA00BdG0pcb2Tb1 = newll; Line Loop ( llA00BdG0pcb2Tb1 ) = { lA00BdG0pcb2TIb0, -lA00cp1Bb4~{0}~{0}, -lA00BdG0pcb2TIb3, lA00BdG0pcb2TbL4 };															// lA00BdG0pcb2TIb2b
psA00BdG0pcb2Tb1 = news; Plane Surface ( psA00BdG0pcb2Tb1 ) = { llA00BdG0pcb2Tb1 };

// ptExA00BdG0pcb2AdC1, ptA00cp1C1~{0}~{0}, ptA00cp1C4~{0}~{0}, ptA00cp1C1~{0}~{0}, ptA00cp1C4~{0}~{0}, ptExA00BdG0pcb2AdC4, ptExA00BdG0pcb2AdC4, ptExA00BdG0pcb2AdC1

//----------------------------------------------------------------------------------------------------------------------------------------------------------------------------------------------------------
//// Intermediate PCB layers

/// Segmented top side adjacent

If( numA00cpUy == 0 )

	/// Top side - 1

	llA00BdG0pcb2Tb4 = newll; Line Loop ( llA00BdG0pcb2Tb4 ) = { lA00BdG0pcb2Tb1, lA00BdG0pcb2TIb0, lA00cp1Bb1A[], lA00BdG0pcb2TIb2, -lA00BdG0pcb2Tb4, -lA00BdG0pcb2TbB1 };
	psA00BdG0pcb2Tb4 = news; Plane Surface ( psA00BdG0pcb2Tb4 ) = { llA00BdG0pcb2Tb4 };

	/// Top side - 2

	llA00BdG0pcb2Tb5 = newll; Line Loop ( llA00BdG0pcb2Tb5 ) = { lA00BdG0pcb2Tb2, lA00BdG0pcb2TIb3, -lA00cp1Bb3A[], lA00BdG0pcb2TIb5, -lA00BdG0pcb2Tb3, lA00BdG0pcb2TbT3 };
	psA00BdG0pcb2Tb5 = news; Plane Surface ( psA00BdG0pcb2Tb5 ) = { llA00BdG0pcb2Tb5 };

Else

	/// Top side - 1

	llA00BdG0pcb2Tb4 = newll; Line Loop ( llA00BdG0pcb2Tb4 ) = { lA00BdG0pcb2Tb1, lA00BdG0pcb2TIb0, lA00cp1Bb1A[], lA00BdG0pcb2TIb1A[], lA00BdG0pcb2TIb2, -lA00BdG0pcb2Tb2, -lA00BdG0pcb2TbB1 };
	psA00BdG0pcb2Tb4 = news; Plane Surface ( psA00BdG0pcb2Tb4 ) = { llA00BdG0pcb2Tb4 };

	// ptExA00cp1C1, ptExA00BdG0pcb2AdC1; ptExA00BdG0pcb2AdC1, ptA00cp1C1~{0}~{0}; ptA00cp1C1~{m1}~{n1}, ptA00cp1C2~{m1}~{n1}; ptA00cp1C2~{m1-1}~{n1}, ptA00cp1C1~{m1}~{n1};
	// ptA00cp1C2~{numA00cpUy}~{numA00cpUx}, ptExA00BdG0pcb2AdC2; ptExA00BdG0pcb2AdC2, ptExA00cp1C2; ptExA00cp1C2, ptExA00cp1C1

	/// Top side - 2

	llA00BdG0pcb2Tb5 = newll; Line Loop ( llA00BdG0pcb2Tb5 ) = { lA00BdG0pcb2Tb4, lA00BdG0pcb2TIb3, -lA00cp1Bb3A[], lA00BdG0pcb2TIb4A[], lA00BdG0pcb2TIb5, -lA00BdG0pcb2Tb3, lA00BdG0pcb2TbT3 };
	psA00BdG0pcb2Tb5 = news; Plane Surface ( psA00BdG0pcb2Tb5 ) = { llA00BdG0pcb2Tb5 };

	// ptExA00cp1C4, ptExA00BdG0pcb2AdC4; ptExA00BdG0pcb2AdC4, ptA00cp1C4~{0}~{0}; ptA00cp1C4~{m1}~{n1}, ptA00cp1C3~{m1}~{n1}; ptA00cp1C3~{m1-1}~{n1}, ptA00cp1C4~{m1}~{n1}
	// ptA00cp1C3~{numA00cpUy}~{numA00cpUx}, ptExA00BdG0pcb2AdC3; ptExA00BdG0pcb2AdC3, ptExA00cp1C3; ptExA00cp1C3, ptExA00cp1C4

EndIf

/// Complete bounding top PCB gas surface

// llA00BdG0pcb2BrTb1 = newll; Line Loop ( llA00BdG0pcb2BrTb1 ) = { lA00BdG0pcb2TbB1, lA00BdG0pcb2Tb2, lA00BdG0pcb2TbR2, -lA00BdG0pcb2Tb3, lA00BdG0pcb2TbT3, lA00BdG0pcb2Tb4, lA00BdG0pcb2TbL4, -lA00BdG0pcb2Tb1 };
// psA00BdG0pcb2BrTb1 = news; Plane Surface ( psA00BdG0pcb2BrTb1 ) = { llA00BdG0pcb2BrTb1 };

// psA00BdG0pcb2InTb1 = news; Plane Surface ( psA00BdG0pcb2InTb1 ) = { surfA00cp1Bb6A[] }; // psA00BdG0pcb2BrTb1,
// psA00BdG0pcb2InTb1 = news; Plane Surface ( psA00BdG0pcb2InTb1 ) = { llA00BdG0pcb2TTb };

//----------------------------------------------------------
//// Feature / Element removal

// Delete{ Surface { psA00BdG0pcb2BrTb1 }; }

//----------------------------------------------------------
//// Complete side layers

/// x - direction

// llA00BdG0pcb12Ib1 = newll; Line Loop ( llA00BdG0pcb12Ib1 ) = { -lA00BdG0pcb2TbB1, -lA00BdG0pcb12Ib1, lA00BdG0pcb1TbB1, lA00BdG0pcb12Ib2 };
// psA00BdG0pcb12Ib1  = news; Plane Surface ( psA00BdG0pcb12Ib1 ) = { llA00BdG0pcb12Ib1 };
// Transfinite Surface { psA00BdG0pcb12Ib1 };
// Recombine Surface { psA00BdG0pcb12Ib1 };

// ptExA00cp1C2, ptExA00cp1C1, ptExA00cp1C1, ptExA00cp1C1, ptExA00cp1C1, ptExA00cp1C2, ptExA00cp1C2, ptExA00cp1C2 

/// y - direction

// llA00BdG0pcb12Ib2 = newll; Line Loop ( llA00BdG0pcb12Ib2 ) = { lA00BdG0pcb12Ib1, lA00BdG0pcb2Tb1, -lA00BdG0pcb2TbL4, -lA00BdG0pcb2Tb4, -lA00BdG0pcb12Ib4, lA00BdG0pcb1TbL4 };
// psA00BdG0pcb12Ib2  = news; Plane Surface ( psA00BdG0pcb12Ib2 ) = { llA00BdG0pcb12Ib2 };
// Transfinite Surface { psA00BdG0pcb12Ib2 };
// Recombine Surface { psA00BdG0pcb12Ib2 };

// ptExA00cp1C1, ptExA00cp1C1, ptExA00cp1C1, ptExA00BdG0pcb2AdC1, ptExA00BdG0pcb2AdC1, ptExA00BdG0pcb2AdC4, ptExA00BdG0pcb2AdC4, ptExA00cp1C4, ptExA00cp1C4, ptExA00cp1C4, ptExA00cp1C4, ptExA00cp1C1

/// x - direction

// llA00BdG0pcb12Ib3 = newll; Line Loop ( llA00BdG0pcb12Ib3 ) = { lA00BdG0pcb2TbT3, -lA00BdG0pcb12Ib4, -lA00BdG0pcb1TbT3, lA00BdG0pcb12Ib3 };
// psA00BdG0pcb12Ib3  = news; Plane Surface ( psA00BdG0pcb12Ib3 ) = { llA00BdG0pcb12Ib3 };
// Transfinite Surface { psA00BdG0pcb12Ib3 };
// Recombine Surface { psA00BdG0pcb12Ib3 };

// ptExA00cp1C3, ptExA00cp1C4, ptExA00cp1C4, ptExA00cp1C4, ptExA00cp1C4, ptExA00cp1C3, ptExA00cp1C3, ptExA00cp1C3

/// y - direction

// llA00BdG0pcb12Ib4 = newll; Line Loop ( llA00BdG0pcb12Ib4 ) = { lA00BdG0pcb12Ib2, lA00BdG0pcb2Tb2, lA00BdG0pcb2TbR2, -lA00BdG0pcb2Tb3, -lA00BdG0pcb12Ib3, -lA00BdG0pcb1TbR2 };
// psA00BdG0pcb12Ib4  = news; Plane Surface ( psA00BdG0pcb12Ib4 ) = { llA00BdG0pcb12Ib4 };
// Transfinite Surface { psA00BdG0pcb12Ib4 };
// Recombine Surface { psA00BdG0pcb12Ib4 };

// ptExA00cp1C2, ptExA00cp1C2, ptExA00cp1C2, ptExA00BdG0pcb2AdC2, ptExA00BdG0pcb2AdC2, ptExA00BdG0pcb2AdC3, ptExA00BdG0pcb2AdC3, ptExA00cp1C3, ptExA00cp1C3, ptExA00cp1C3, ptExA00cp1C3, ptExA00cp1C2


/// SURFACE LOOP
//----------------------------------------------------------------------------------------------------------------------------------------------------------------------------------------------------------
//// PCB Surface Loop - PCB surface loop

//----------------------------------------------------------
//// PCB Surface Layers

If( numA00cpUy == 0 )

	// slA00BdG0pcbSb1 = newsl; Surface Loop ( slA00BdG0pcbSb1 ) = { psA00BdG0pcb2Tb1, psA00BdG0pcb2Tb2, surfA00cp1Bb5A[], psA00BdG0pcb2Tb4, psA00BdG0pcb2Tb5, psA00BdG0pcb12Ib1, psA00BdG0pcb12Ib2, 
	// psA00BdG0pcb12Ib3, psA00BdG0pcb12Ib4, surfA00cp1BbA[] };
	// surfA00cp2Tb6A[],

Else

	// slA00BdG0pcbSb1 = newsl; Surface Loop ( slA00BdG0pcbSb1 ) = { psA00BdG0pcb2Tb1, psA00BdG0pcb2Tb2, psA00BdG0pcb2Tb3A[], surfA00cp1Bb5A[], psA00BdG0pcb2Tb4, psA00BdG0pcb2Tb5, psA00BdG0pcb12Ib1, psA00BdG0pcb12Ib2, 
	// psA00BdG0pcb12Ib3, psA00BdG0pcb12Ib4, surfA00cp1BbA[] };
	// surfA00cp2Tb6A[],

EndIf

// psA00BdG0pcb2BrTb1

// slA00BdG0pcbTSb1[] += slA00BdG0pcbSb1;


/// VOLUME
//----------------------------------------------------------------------------------------------------------------------------------------------------------------------------------------------------------
//// PCB volume

// volA00BdG0pcb12V1 = newv; Volume ( volA00BdG0pcb12V1 ) = slA00BdG0pcbTSb1[];


/// PHYSICAL SURFACE
//----------------------------------------------------------------------------------------------------------------------------------------------------------------------------------------------------------
//// Physical surfaces - PCB surface

If(numA00cpUy == 0)

	// physsurfA00BdG0pcb12Sb1 = newreg; 
	// Physical Surface ( physsurfA00BdG0pcb12Sb1 ) = { psA00BdG0pcb2Tb1, psA00BdG0pcb2Tb2, surfA00cp1Bb5A[], psA00BdG0pcb2Tb4, psA00BdG0pcb2Tb5, psA00BdG0pcb12Ib1, psA00BdG0pcb12Ib2, psA00BdG0pcb12Ib3, psA00BdG0pcb12Ib4, surfA00cp1BbA[] };
	// surfA00cp2Tb6A[], 

Else

	// physsurfA00BdG0pcb12Sb1 = newreg; 
	// Physical Surface ( physsurfA00BdG0pcb12Sb1 ) = { psA00BdG0pcb2Tb1, psA00BdG0pcb2Tb2, psA00BdG0pcb2Tb3A[], surfA00cp1Bb5A[], psA00BdG0pcb2Tb4, psA00BdG0pcb2Tb5, psA00BdG0pcb12Ib1, psA00BdG0pcb12Ib2, psA00BdG0pcb12Ib3, psA00BdG0pcb12Ib4, surfA00cp1BbA[] };
	// surfA00cp2Tb6A[],

EndIf

// psA00BdG0pcb2InTb1
// psA00BdG0pcb12Ib1, psA00BdG0pcb12Ib2, psA00BdG0pcb12Ib3, psA00BdG0pcb12Ib4, surfA00cp1Bb5A[]
// surfA00cp1Bb6A[], psA00BdG0pcb2Tb1, psA00BdG0pcb2Tb2, psA00BdG0pcb2Tb3A, psA00BdG0pcb2Tb4, psA00BdG0pcb2Tb5


/// PHYSICAL VOLUME
//----------------------------------------------------------------------------------------------------------------------------------------------------------------------------------------------------------
//// Physical volume - PCB volume

// physvolA00BdG0pcb12V1 = newreg;
// Physical Volume ( physvolA00BdG0pcb12V1 ) = { volA00BdG0pcb12V1 };


// End


/// GEOMETRY MODULE 1
/// PCB STRUCTURE
//----------------------------------------------------------------------------------------------------------------------------------------------------------------------------------------------------------
//// Variable designation: geometrical element, structural reference, interface / description, number


/// LINES
//----------------------------------------------------------------------------------------------------------------------------------------------------------------------------------------------------------
//// Border lines


/// PCB LEVEL 1
//----------------------------------------------------------
//// Connect the upper and lower points with lines to form the PCB 1 layer

/*
// lA01pcb12Ib1 = newl; Line ( lA01pcb12Ib1 ) = { ptExA00cp2C1, ptExA02cp1C1 };
// Transfinite Line { lA01pcb12Ib1 } = lA01pcb12Ib1;
// lA01pcb12Ib2 = newl; Line ( lA01pcb12Ib2 ) = { ptExA00cp2C2, ptExA02cp1C4 };
// Transfinite Line { lA01pcb12Ib2 } = lA01pcb12Ib2;
// lA01pcb12Ib3 = newl; Line ( lA01pcb12Ib3 ) = { ptExA00cp2C3, ptExA02cp1C3 };
// Transfinite Line { lA01pcb12Ib3 } = lA01pcb12Ib3;
// lA01pcb12Ib4 = newl; Line ( lA01pcb12Ib4 ) = { ptExA00cp2C4, ptExA02cp1C2 };
// Transfinite Line { lA01pcb12Ib4 } = lA01pcb12Ib4;
*/


//----------------------------------------------------------
//// Connect the upper and lower copper conductor - level 1

lA00Bd0pcb12Ib1 = newl; Line ( lA00Bd0pcb12Ib1 ) = { ptExA00cp1C1, ptExA00cp2C1 };
// Transfinite Line { lA00Bd0pcb12Ib1 } = lA00Bd0pcb12Ib1;
lA00Bd0pcb12Ib2 = newl; Line ( lA00Bd0pcb12Ib2 ) = { ptExA00cp1C2, ptExA00cp2C2 };
// Transfinite Line { lA00Bd0pcb12Ib2 } = lA00Bd0pcb12Ib2;
lA00Bd0pcb12Ib3 = newl; Line ( lA00Bd0pcb12Ib3 ) = { ptExA00cp1C3, ptExA00cp2C3 };
// Transfinite Line { lA00Bd0pcb12Ib3 } = lA00Bd0pcb12Ib3;
lA00Bd0pcb12Ib4 = newl; Line ( lA00Bd0pcb12Ib4 ) = { ptExA00cp1C4, ptExA00cp2C4 };
// Transfinite Line { lA00Bd0pcb12Ib4 } = lA00Bd0pcb12Ib4;


/*
//----------------------------------------------------------
//// Connect the PCB to the lower copper conductor - level 1

// lA00Bd0pcb12Ib1 = newl; Line ( lA00Bd0pcb12Ib1 ) = { ptExA00cp1C1, ptExA00cp2C1 };
// Transfinite Line { lA00Bd0pcb12Ib1 } = lA00Bd0pcb12Ib1;
// lA00Bd0pcb12Ib2 = newl; Line ( lA00Bd0pcb12Ib2 ) = { ptExA00cp1C2, ptExA00cp2C2 };
// Transfinite Line { lA00Bd0pcb12Ib2 } = lA00Bd0pcb12Ib2;
// lA00Bd0pcb12Ib3 = newl; Line ( lA00Bd0pcb12Ib3 ) = { ptExA00cp1C3, ptExA00cp2C3 };
// Transfinite Line { lA00Bd0pcb12Ib3 } = lA00Bd0pcb12Ib3;
// lA00Bd0pcb12Ib4 = newl; Line ( lA00Bd0pcb12Ib4 ) = { ptExA00cp1C4, ptExA00cp2C4 };
// Transfinite Line { lA00Bd0pcb12Ib4 } = lA00Bd0pcb12Ib4;
*/

//----------------------------------------------------------
//// Connect the PCB to the upper level lower copper conductor - level 1

lA00Bd0pcb2Tb1 = newl; Line ( lA00Bd0pcb2Tb1 ) = { ptExA00cp2C1, ptExA00Bd0pcb2AdC1 };
// Transfinite Line { lA00Bd0pcb2Tb1 } = lA00Bd0pcb2Tb1;
lA00Bd0pcb2Tb2 = newl; Line ( lA00Bd0pcb2Tb2 ) = { ptExA00cp2C2, ptExA00Bd0pcb2AdC2 };
// Transfinite Line { lA00Bd0pcb2Tb2 } = lA00Bd0pcb2Tb2;
lA00Bd0pcb2Tb3 = newl; Line ( lA00Bd0pcb2Tb3 ) = { ptExA00cp2C3, ptExA00Bd0pcb2AdC3 };
// Transfinite Line { lA00Bd0pcb2Tb3 } = lA00Bd0pcb2Tb3;
lA00Bd0pcb2Tb4 = newl; Line ( lA00Bd0pcb2Tb4 ) = { ptExA00cp2C4, ptExA00Bd0pcb2AdC4 };
// Transfinite Line { lA00Bd0pcb2Tb4 } = lA00Bd0pcb2Tb4;

//----------------------------------------------------------
//// Connect the top electrode to the level 1 - PCB top

/*
// ltExA00EcC1 = newl; Line ( ltExA00EcC1 ) = { ptExA00EcC1, ptExA00cp2C1 };
// Transfinite Line { ltExA00EcC1 } = ltExA00EcC1;
// ltExA00EcM12 = newl; Line ( ltExA00EcM12 ) = { ptExA00EcM12, ltExA00Ptmc1 };
// Transfinite Line { ltExA00EcM12 } = ltExA00EcM12;
// ltExA00EcC2 = newl; Line ( ltExA00EcC2 ) = { ptExA00EcC2, ptExA00cp2C4 };
// Transfinite Line { ltExA00EcC2 } = ltExA00EcC2;
// ltExA00EcC3 = newl; Line ( ltExA00EcC3 ) = { ptExA00EcC3, ptExA00cp2C3 };
// Transfinite Line { ltExA00EcC3 } = ltExA00EcC3;
// ltExA00EcM34 = newl; Line ( ltExA00EcM34 ) = { ptExA00EcM34, ltExA00Ptmc3 };
// Transfinite Line { ltExA00EcM34 } = ltExA00EcM34;
// ltExA00EcC4 = newl; Line ( ltExA00EcC4 ) = { ptExA00EcC4, ptExA00cp2C2 };
// Transfinite Line { ltExA00EcC4 } = ltExA00EcC4;
*/

//----------------------------------------------------------
//// Connect the PCB top side - level 3 side lower lines

lA00Bd0pcb2TbB1 = newl; Line ( lA00Bd0pcb2TbB1 ) = { ptExA00cp2C1, ptExA00cp2C2 };
lA00Bd0pcb2TbR2 = newl; Line ( lA00Bd0pcb2TbR2 ) = { ptExA00Bd0pcb2AdC2, ptExA00Bd0pcb2AdC3 };
lA00Bd0pcb2TbT3 = newl; Line ( lA00Bd0pcb2TbT3 ) = { ptExA00cp2C3, ptExA00cp2C4 };
lA00Bd0pcb2TbL4 = newl; Line ( lA00Bd0pcb2TbL4 ) = { ptExA00Bd0pcb2AdC4, ptExA00Bd0pcb2AdC1 };


/// SURFACES
//----------------------------------------------------------------------------------------------------------------------------------------------------------------------------------------------------------
//// PCB top gas bounding surfaces

For m1 In { 0:numA00cpUy }
 For n1 In { 0:numA00cpUx }

//----------------------------------------------------------
//// PCB top gas bounding surfaces

/// Segmented top PCB intermediate lines

If( m1 > 0 )
	
	/// Middle

	lA00Bd0pcb2TIb1~{m1}~{n1} = newl; Line ( lA00Bd0pcb2TIb1~{m1}~{n1} ) = { ptA00cp2C2~{m1-1}~{n1}, ptA00cp2C1~{m1}~{n1} };
	lA00Bd0pcb2TIb1 = lA00Bd0pcb2TIb1~{m1}~{n1};
	lA00Bd0pcb2TIb1A[] += lA00Bd0pcb2TIb1~{m1}~{n1};

	lA00cp2Tb4S = lA00cp2Tb4~{m1}~{n1};

		lA00Bd0pcb2TIb4~{m1}~{n1} = newl; Line ( lA00Bd0pcb2TIb4~{m1}~{n1} ) = { ptA00cp2C3~{m1-1}~{n1}, ptA00cp2C4~{m1}~{n1} };
		lA00Bd0pcb2TIb4 = lA00Bd0pcb2TIb4~{m1}~{n1};
		lA00Bd0pcb2TIb4A[] += lA00Bd0pcb2TIb4~{m1}~{n1};

		lA00cp2Tb2S = lA00cp2Tb2~{m1-1}~{n1};

		/// Top side middle - 2

		llA00Bd0pcb2Tb3 = newll; Line Loop ( llA00Bd0pcb2Tb3 ) = { lA00Bd0pcb2TIb1, -lA00cp2Tb4S, -lA00Bd0pcb2TIb4, -lA00cp2Tb2S };
		psA00Bd0pcb2Tb3 = news; Plane Surface ( psA00Bd0pcb2Tb3 ) = { llA00Bd0pcb2Tb3 };
		psA00Bd0pcb2Tb3A[] += psA00Bd0pcb2Tb3;

EndIf

If( m1 == numA00cpUy && n1 == numA00cpUx )

	/// Side 2

	lA00Bd0pcb2TIb2 = newl; Line ( lA00Bd0pcb2TIb2 ) = { ptA00cp2C2~{numA00cpUy}~{numA00cpUx}, ptExA00Bd0pcb2AdC2 };

	/// Top side middle last - 3

	lA00Bd0pcb2TIb5 = newl; Line ( lA00Bd0pcb2TIb5 ) = { ptA00cp2C3~{numA00cpUy}~{numA00cpUx}, ptExA00Bd0pcb2AdC3 };
	lA00Bd0pcb2TIb3a = newl; Line ( lA00Bd0pcb2TIb3a ) = { ptExA00Bd0pcb2AdC2, ptExA00Bd0pcb2AdC3 };
	lA00Bd0pcb2TIb3b = newl; Line ( lA00Bd0pcb2TIb3b ) = { ptA00cp2C2~{numA00cpUy}~{numA00cpUx}, ptA00cp2C3~{numA00cpUy}~{numA00cpUx} };
	llA00Bd0pcb2Tb2 = newll; Line Loop ( llA00Bd0pcb2Tb2 ) = { lA00Bd0pcb2TIb2, lA00Bd0pcb2TbR2, -lA00Bd0pcb2TIb5, -lA00cp2Tb2~{numA00cpUy}~{numA00cpUx} };										// -lA00Bd0pcb2TIb3b
	psA00Bd0pcb2Tb2 = news; Plane Surface ( psA00Bd0pcb2Tb2 ) = { llA00Bd0pcb2Tb2 };

EndIf

// llA00Bd0pcb2TTb = newll; Line Loop ( llA00Bd0pcb2TTb ) = { llA00cp22Ib5A[], lA00Bd0pcb2TbB1, lA00Bd0pcb2Tb2, lA00Bd0pcb2TbR2, -lA00Bd0pcb2Tb3, lA00Bd0pcb2TbT3, lA00Bd0pcb2Tb4, lA00Bd0pcb2TbL4, -lA00Bd0pcb2Tb1 };


 EndFor
EndFor

//----------------------------------------------------------
//// PCB top gas bounding surfaces

/// Segmented top PCB intermediate lines

/// Side 1

lA00Bd0pcb2TIb0 = newl; Line ( lA00Bd0pcb2TIb0 ) = { ptExA00Bd0pcb2AdC1, ptA00cp2C1~{0}~{0} };

/// Top side middle first - 1

lA00Bd0pcb2TIb3 = newl; Line ( lA00Bd0pcb2TIb3 ) = { ptExA00Bd0pcb2AdC4, ptA00cp2C4~{0}~{0} };
// lA00Bd0pcb2TIb2a = newl; Line ( lA00Bd0pcb2TIb2a ) = { ptExA00Bd0pcb2AdC4, ptExA00Bd0pcb2AdC1 };
// lA00Bd0pcb2TIb2b = newl; Line ( lA00Bd0pcb2TIb2b ) = { ptA00cp2C1~{0}~{0}, ptA00cp2C4~{0}~{0} };
llA00Bd0pcb2Tb1 = newll; Line Loop ( llA00Bd0pcb2Tb1 ) = { lA00Bd0pcb2TIb0, -lA00cp2Tb4~{0}~{0}, -lA00Bd0pcb2TIb3, lA00Bd0pcb2TbL4 };															// lA00Bd0pcb2TIb2b
psA00Bd0pcb2Tb1 = news; Plane Surface ( psA00Bd0pcb2Tb1 ) = { llA00Bd0pcb2Tb1 };

//----------------------------------------------------------------------------------------------------------------------------------------------------------------------------------------------------------
//// Intermediate PCB layers

/// Segmented top side adjacent

If( numA00cpUy == 0 )

	/// Top side - 1

	llA00Bd0pcb2Tb4 = newll; Line Loop ( llA00Bd0pcb2Tb4 ) = { lA00Bd0pcb2Tb1, lA00Bd0pcb2TIb0, lA00cp2Tb1A[], lA00Bd0pcb2TIb2, -lA00Bd0pcb2Tb4, -lA00Bd0pcb2TbB1 };
	psA00Bd0pcb2Tb4 = news; Plane Surface ( psA00Bd0pcb2Tb4 ) = { llA00Bd0pcb2Tb4 };

	/// Top side - 2

	llA00Bd0pcb2Tb5 = newll; Line Loop ( llA00Bd0pcb2Tb5 ) = { lA00Bd0pcb2Tb2, lA00Bd0pcb2TIb3, -lA00cp2Tb3A[], lA00Bd0pcb2TIb5, -lA00Bd0pcb2Tb3, lA00Bd0pcb2TbT3 };
	psA00Bd0pcb2Tb5 = news; Plane Surface ( psA00Bd0pcb2Tb5 ) = { llA00Bd0pcb2Tb5 };

Else

	/// Top side - 1

	llA00Bd0pcb2Tb4 = newll; Line Loop ( llA00Bd0pcb2Tb4 ) = { lA00Bd0pcb2Tb1, lA00Bd0pcb2TIb0, lA00cp2Tb1A[], lA00Bd0pcb2TIb1A[], lA00Bd0pcb2TIb2, -lA00Bd0pcb2Tb2, -lA00Bd0pcb2TbB1 };
	psA00Bd0pcb2Tb4 = news; Plane Surface ( psA00Bd0pcb2Tb4 ) = { llA00Bd0pcb2Tb4 };

	// ptExA00cp2C1, ptExA00Bd0pcb2AdC1; ptExA00Bd0pcb2AdC1, ptA00cp2C1~{0}~{0}; ptA00cp2C1~{m1}~{n1}, ptA00cp2C2~{m1}~{n1}; ptA00cp2C2~{m1-1}~{n1}, ptA00cp2C1~{m1}~{n1};
	// ptA00cp2C2~{numA00cpUy}~{numA00cpUx}, ptExA00Bd0pcb2AdC2; ptExA00Bd0pcb2AdC2, ptExA00cp2C2; ptExA00cp2C2, ptExA00cp2C1 

	/// Top side - 2

	llA00Bd0pcb2Tb5 = newll; Line Loop ( llA00Bd0pcb2Tb5 ) = { lA00Bd0pcb2Tb4, lA00Bd0pcb2TIb3, -lA00cp2Tb3A[], lA00Bd0pcb2TIb4A[], lA00Bd0pcb2TIb5, -lA00Bd0pcb2Tb3, lA00Bd0pcb2TbT3 };
	psA00Bd0pcb2Tb5 = news; Plane Surface ( psA00Bd0pcb2Tb5 ) = { llA00Bd0pcb2Tb5 };

	// ptExA00cp2C4, ptExA00Bd0pcb2AdC4; ptExA00Bd0pcb2AdC4, ptA00cp2C4~{0}~{0}; ptA00cp2C4~{m1}~{n1}, ptA00cp2C3~{m1}~{n1}; ptA00cp2C3~{m1-1}~{n1}, ptA00cp2C4~{m1}~{n1}
	// ptA00cp2C3~{numA00cpUy}~{numA00cpUx}, ptExA00Bd0pcb2AdC3; ptExA00Bd0pcb2AdC3, ptExA00cp2C3; ptExA00cp2C3, ptExA00cp2C4

EndIf

/// Complete bounding top PCB gas surface

// llA00Bd0pcb2BrTb1 = newll; Line Loop ( llA00Bd0pcb2BrTb1 ) = { lA00Bd0pcb2TbB1, lA00Bd0pcb2Tb2, lA00Bd0pcb2TbR2, -lA00Bd0pcb2Tb3, lA00Bd0pcb2TbT3, lA00Bd0pcb2Tb4, lA00Bd0pcb2TbL4, -lA00Bd0pcb2Tb1 };
// psA00Bd0pcb2BrTb1 = news; Plane Surface ( psA00Bd0pcb2BrTb1 ) = { llA00Bd0pcb2BrTb1 };

// psA00Bd0pcb2InTb1 = news; Plane Surface ( psA00Bd0pcb2InTb1 ) = { surfA00cp2Tb6A[] }; // psA00Bd0pcb2BrTb1,
// psA00Bd0pcb2InTb1 = news; Plane Surface ( psA00Bd0pcb2InTb1 ) = { llA00Bd0pcb2TTb };

//----------------------------------------------------------
//// Feature / Element removal

// Delete{ Surface { psA00Bd0pcb2BrTb1 }; }

//----------------------------------------------------------
//// Complete side layers

/// x - direction

llA00Bd0pcb12Ib1 = newll; Line Loop ( llA00Bd0pcb12Ib1 ) = { -lA00Bd0pcb2TbB1, -lA00Bd0pcb12Ib1, lA00BdG0pcb2TbB1, lA00Bd0pcb12Ib2 };
psA00Bd0pcb12Ib1  = news; Plane Surface ( psA00Bd0pcb12Ib1 ) = { llA00Bd0pcb12Ib1 };
// Transfinite Surface { psA00Bd0pcb12Ib1 };
// Recombine Surface { psA00Bd0pcb12Ib1 };

// ptExA00cp2C2, ptExA00cp2C1, ptExA00cp2C1, ptExA00cp1C1, ptExA00cp1C1, ptExA00cp1C2, ptExA00cp1C2, ptExA00cp2C2

/// y - direction

llA00Bd0pcb12Ib2 = newll; Line Loop ( llA00Bd0pcb12Ib2 ) = { lA00Bd0pcb12Ib1, lA00Bd0pcb2Tb1, -lA00Bd0pcb2TbL4, -lA00Bd0pcb2Tb4, -lA00Bd0pcb12Ib4, lA00BdG0pcb2Tb4, lA00BdG0pcb2TbL4, -lA00BdG0pcb2Tb1 };
psA00Bd0pcb12Ib2  = news; Plane Surface ( psA00Bd0pcb12Ib2 ) = { llA00Bd0pcb12Ib2 };
// Transfinite Surface { psA00Bd0pcb12Ib2 };
// Recombine Surface { psA00Bd0pcb12Ib2 };

// ptExA00cp1C1, ptExA00cp2C1, ptExA00cp2C1, ptExA00Bd0pcb2AdC1, ptExA00Bd0pcb2AdC1, ptExA00Bd0pcb2AdC4, ptExA00Bd0pcb2AdC4, ptExA00cp2C4, ptExA00cp2C4, ptExA00cp1C4,
// ptExA00cp1C1, ptExA00cp2C1, ptExA00cp2C1, ptExA00Bd0pcb2AdC1, ptExA00Bd0pcb2AdC1, ptExA00Bd0pcb2AdC4, ptExA00Bd0pcb2AdC4, ptExA00cp2C4, ptExA00cp2C4, ptExA00cp1C4, ptExA00cp1C4, ptExA00BdG0pcb2AdC4, ptExA00BdG0pcb2AdC4, ptExA00BdG0pcb2AdC1,
// ptExA00Bd0pcb2AdC1, ptExA00cp1C1

/// x - direction

llA00Bd0pcb12Ib3 = newll; Line Loop ( llA00Bd0pcb12Ib3 ) = { lA00Bd0pcb2TbT3, -lA00Bd0pcb12Ib4, -lA00BdG0pcb2TbT3, lA00Bd0pcb12Ib3 };
psA00Bd0pcb12Ib3  = news; Plane Surface ( psA00Bd0pcb12Ib3 ) = { llA00Bd0pcb12Ib3 };
// Transfinite Surface { psA00Bd0pcb12Ib3 };
// Recombine Surface { psA00Bd0pcb12Ib3 };

// ptExA00cp2C3, ptExA00cp2C4, ptExA00cp2C4, ptExA00cp1C4, ptExA00cp1C4, ptExA00cp1C3, ptExA00cp1C3, ptExA00cp2C3

/// y - direction

llA00Bd0pcb12Ib4 = newll; Line Loop ( llA00Bd0pcb12Ib4 ) = { lA00Bd0pcb12Ib2, lA00Bd0pcb2Tb2, lA00Bd0pcb2TbR2, -lA00Bd0pcb2Tb3, -lA00Bd0pcb12Ib3, lA00BdG0pcb2Tb3, -lA00BdG0pcb2TbR2, -lA00BdG0pcb2Tb2 };
psA00Bd0pcb12Ib4  = news; Plane Surface ( psA00Bd0pcb12Ib4 ) = { llA00Bd0pcb12Ib4 };
// Transfinite Surface { psA00Bd0pcb12Ib4 };
// Recombine Surface { psA00Bd0pcb12Ib4 };

// ptExA00cp1C2, ptExA00cp2C2, ptExA00cp2C2, ptExA00Bd0pcb2AdC2, ptExA00Bd0pcb2AdC2, ptExA00Bd0pcb2AdC3, ptExA00Bd0pcb2AdC3, ptExA00cp2C3, ptExA00cp2C3, ptExA00cp1C3, ptExA00cp1C3, ptExA00cp1C2
// ptExA00cp1C2, ptExA00cp2C2, ptExA00cp2C2, ptExA00Bd0pcb2AdC2, ptExA00Bd0pcb2AdC2, ptExA00Bd0pcb2AdC3, ptExA00Bd0pcb2AdC3, ptExA00cp2C3, ptExA00cp2C3, ptExA00cp1C3, ptExA00cp1C3, ptExA00BdG0pcb2AdC3, ptExA00BdG0pcb2AdC3, ptExA00BdG0pcb2AdC2, 
// ptExA00BdG0pcb2AdC2, ptExA00cp1C2


/// SURFACE LOOP
//----------------------------------------------------------------------------------------------------------------------------------------------------------------------------------------------------------
//// PCB Surface Loop - PCB surface loop

//----------------------------------------------------------
//// PCB Surface Layers

If( numA00cpUy == 0 )

	slA00Bd0pcbSb1 = newsl; Surface Loop ( slA00Bd0pcbSb1 ) = { psA00BdG0pcb2Tb1, psA00BdG0pcb2Tb2, psA00BdG0pcb2Tb4, psA00BdG0pcb2Tb5, psA00Bd0pcb2Tb1, psA00Bd0pcb2Tb2, psA00Bd0pcb2Tb4, psA00Bd0pcb2Tb5, psA00Bd0pcb12Ib1, psA00Bd0pcb12Ib2, 
	psA00Bd0pcb12Ib3, psA00Bd0pcb12Ib4, -slA01cpSb1A2[] };
	slA00Bd0pcbTSb1A[] += slA00Bd0pcbSb1;
	slA00Bd0pcbTSb1[] = { psA00BdG0pcb2Tb1, psA00BdG0pcb2Tb2, psA00BdG0pcb2Tb4, psA00BdG0pcb2Tb5, psA00Bd0pcb2Tb1, psA00Bd0pcb2Tb2, psA00Bd0pcb2Tb4, psA00Bd0pcb2Tb5, psA00Bd0pcb12Ib1, psA00Bd0pcb12Ib2, psA00Bd0pcb12Ib3, psA00Bd0pcb12Ib4, -surfA00cp12Ib1A[], -surfA00cp12Ib2A[], -surfA00cp12Ib3A[], -surfA00cp12Ib4A[] };
	slA00Bd0pcbTSb2A[] += { psA00BdG0pcb2Tb1, psA00BdG0pcb2Tb2, psA00BdG0pcb2Tb4, psA00BdG0pcb2Tb5, psA00Bd0pcb2Tb1, psA00Bd0pcb2Tb2, psA00Bd0pcb2Tb4, psA00Bd0pcb2Tb5, psA00Bd0pcb12Ib1, psA00Bd0pcb12Ib2, psA00Bd0pcb12Ib3, psA00Bd0pcb12Ib4, -surfA00cp12Ib1A[], -surfA00cp12Ib2A[], -surfA00cp12Ib3A[], -surfA00cp12Ib1A[], -surfA00cp12Ib2A[], -surfA00cp12Ib3A[], -surfA00cp12Ib4A[] };
	// -surfA00cp12Ib1A[], -surfA00cp12Ib2A[], -surfA00cp12Ib3A[], -surfA00cp12Ib4A[], -surfA00cp1Bb5A[], -surfA00cp2Tb6A[]
	// -slA01cpSb1A2[]

Else

	slA00Bd0pcbSb1 = newsl; Surface Loop ( slA00Bd0pcbSb1 ) = { psA00BdG0pcb2Tb1, psA00BdG0pcb2Tb2, psA00BdG0pcb2Tb3A[], psA00BdG0pcb2Tb4, psA00BdG0pcb2Tb5, psA00Bd0pcb2Tb1, psA00Bd0pcb2Tb2, psA00Bd0pcb2Tb3A[], psA00Bd0pcb2Tb4, psA00Bd0pcb2Tb5, 
	psA00Bd0pcb12Ib1, psA00Bd0pcb12Ib2, psA00Bd0pcb12Ib3, psA00Bd0pcb12Ib4, -surfA00cp12Ib1A[], -surfA00cp12Ib2A[], -surfA00cp12Ib3A[], -surfA00cp12Ib4A[] };
	slA00Bd0pcbTSb1A[] += slA00Bd0pcbSb1;
	// slA00Bd0pcbTSb1[] = { psA00BdG0pcb2Tb1, psA00BdG0pcb2Tb2, psA00BdG0pcb2Tb3A[], psA00BdG0pcb2Tb4, psA00BdG0pcb2Tb5, psA00Bd0pcb2Tb1, psA00Bd0pcb2Tb2, psA00Bd0pcb2Tb3A[], psA00Bd0pcb2Tb4, psA00Bd0pcb2Tb5, psA00Bd0pcb12Ib1, psA00Bd0pcb12Ib2, 
	// psA00Bd0pcb12Ib3, psA00Bd0pcb12Ib4, -surfA00cp12Ib1A[], -surfA00cp12Ib2A[], -surfA00cp12Ib3A[], -surfA00cp12Ib4A[] };
	// slA00Bd0pcbTSb2A[] += { psA00BdG0pcb2Tb1, psA00BdG0pcb2Tb2, psA00BdG0pcb2Tb3A[], psA00BdG0pcb2Tb4, psA00BdG0pcb2Tb5, psA00Bd0pcb2Tb1, psA00Bd0pcb2Tb2, psA00Bd0pcb2Tb3A[], psA00Bd0pcb2Tb4, psA00Bd0pcb2Tb5, psA00Bd0pcb12Ib1, psA00Bd0pcb12Ib2, 
	// psA00Bd0pcb12Ib3, psA00Bd0pcb12Ib4, -surfA00cp12Ib1A[], -surfA00cp12Ib2A[], -surfA00cp12Ib3A[], -surfA00cp12Ib4A[] };
	// -surfA00cp12Ib1A[], -surfA00cp12Ib2A[], -surfA00cp12Ib3A[], -surfA00cp12Ib4A[], -surfA00cp1Bb5A[], -surfA00cp2Tb6A[]
	// -slA01cpSb1A2[]

EndIf

// psA00Bd0pcb2BrTb1

//	slA02cpSb1~{m1}~{n1} = newsl; Surface Loop ( slA02cpSb1~{m1}~{n1} ) = { psA02cp12Ib1~{m1}~{n1}, psA02cp12Ib2~{m1}~{n1}, psA02cp12Ib3~{m1}~{n1}, psA02cp12Ib4~{m1}~{n1}, psA02cp12Bb5A~{m1}~{n1}, psA02cp12Tb6A~{m1}~{n1} };
//	slA02cpSb1A1[] += slA02cpSb1~{m1}~{n1};
//	slA02cpSb1[] = { psA02cp12Ib1~{m1}~{n1}, psA02cp12Ib2~{m1}~{n1}, psA02cp12Ib3~{m1}~{n1}, psA02cp12Ib4~{m1}~{n1}, psA02cp12Bb5A~{m1}~{n1}, psA02cp12Tb6A~{m1}~{n1} };   
//	slA02cpSb1A2[] += { psA02cp12Ib1~{m1}~{n1}, psA02cp12Ib2~{m1}~{n1}, psA02cp12Ib3~{m1}~{n1}, psA02cp12Ib4~{m1}~{n1}, psA02cp12Bb5A~{m1}~{n1}, psA02cp12Tb6A~{m1}~{n1} };
//	physsurfA02cpSb1~{m1}~{n1} = newreg; Physical Surface ( physsurfA02cpSb1~{m1}~{n1} ) = { slA02cpSb1[] };


/// VOLUME
//----------------------------------------------------------------------------------------------------------------------------------------------------------------------------------------------------------
//// PCB volume

volA00Bd0pcb12V1 = newv; Volume ( volA00Bd0pcb12V1 ) = { slA00Bd0pcbTSb1A[] };


/// PHYSICAL SURFACE
//----------------------------------------------------------------------------------------------------------------------------------------------------------------------------------------------------------
//// Physical surfaces - PCB surface

If(numA00cpUy == 0)

	// physsurfA00Bd0pcb12Sb1 = newreg; 
	// Physical Surface ( physsurfA00Bd0pcb12Sb1 ) = { psA00BdG0pcb2Tb1, psA00BdG0pcb2Tb2, psA00BdG0pcb2Tb4, psA00BdG0pcb2Tb5, psA00Bd0pcb2Tb1, psA00Bd0pcb2Tb2, psA00Bd0pcb2Tb4, psA00Bd0pcb2Tb5, psA00Bd0pcb12Ib1, psA00Bd0pcb12Ib2, 
	// psA00Bd0pcb12Ib3, psA00Bd0pcb12Ib4, -slA01cpSb1A2[] };
	// -surfA00cp12Ib1A[], -surfA00cp12Ib2A[], -surfA00cp12Ib3A[], -surfA00cp12Ib4A[], -surfA00cp1Bb5A[], -surfA00cp2Tb6A[]

Else

	// physsurfA00Bd0pcb12Sb1 = newreg; 
	// Physical Surface ( physsurfA00Bd0pcb12Sb1 ) = { psA00BdG0pcb2Tb1, psA00BdG0pcb2Tb2, psA00BdG0pcb2Tb3A[], psA00BdG0pcb2Tb4, psA00BdG0pcb2Tb5, psA00Bd0pcb2Tb1, psA00Bd0pcb2Tb2, psA00Bd0pcb2Tb3A[], psA00Bd0pcb2Tb4, psA00Bd0pcb2Tb5, 
	// psA00Bd0pcb12Ib1, psA00Bd0pcb12Ib2, psA00Bd0pcb12Ib3, psA00Bd0pcb12Ib4, -slA01cpSb1A2[] };
	// -surfA00cp12Ib1A[], -surfA00cp12Ib2A[], -surfA00cp12Ib3A[], -surfA00cp12Ib4A[], -surfA00cp1Bb5A[], -surfA00cp2Tb6A[]

EndIf

// psA00Bd0pcb2InTb1
// psA00Bd0pcb12Ib1, psA00Bd0pcb12Ib2, psA00Bd0pcb12Ib3, psA00Bd0pcb12Ib4, surfA00cp1Bb5A[]
// surfA00cp2Tb6A[], psA00Bd0pcb2Tb1, psA00Bd0pcb2Tb2, psA00Bd0pcb2Tb3A, psA00Bd0pcb2Tb4, psA00Bd0pcb2Tb5


/// PHYSICAL VOLUME
//----------------------------------------------------------------------------------------------------------------------------------------------------------------------------------------------------------
//// Physical volume - PCB volume

physvolA00Bd0pcb12V1 = newreg; Physical Volume ( physvolA00Bd0pcb12V1 ) = { volA00Bd0pcb12V1 };


// End
